<svg width="250.77499999999998px" height="64.19984283447266px" xmlns="http://www.w3.org/2000/svg" viewBox="124.61250000000001 42.90007858276367 250.77499999999998 64.19984283447266" style="background: none;" preserveAspectRatio="xMidYMid"><defs><filter id="editing-neon" x="-100%" y="-100%" width="300%" height="300%"><feFlood flood-color="#85a2b6" result="flood"></feFlood><feComposite operator="in" in="flood" in2="SourceAlpha" result="color"></feComposite><feFlood flood-color="#85a2b6" result="flood2"></feFlood><feComposite operator="in" in="flood2" in2="SourceAlpha" result="color2"></feComposite><feMorphology operator="dilate" radius="2" in="color" result="dilate"></feMorphology><feGaussianBlur stdDeviation="6" in="color" result="blur1"></feGaussianBlur><feGaussianBlur stdDeviation="2.5" in="color" result="blur2"></feGaussianBlur><feGaussianBlur stdDeviation="1" in="SourceAlpha" result="blur3"></feGaussianBlur><feGaussianBlur stdDeviation="6" in="dilate" result="blur4"></feGaussianBlur><feConvolveMatrix in="color2" result="conv" order="3,3" divisor="1" kernelMatrix="1 1 1  1 1 1  1 1 1"></feConvolveMatrix><feMerge><feMergeNode in="blur1"></feMergeNode><feMergeNode in="blur2"></feMergeNode><feMergeNode in="blur4"></feMergeNode><feMergeNode in="blur3"></feMergeNode><feMergeNode in="blur3"></feMergeNode><feMergeNode in="blur3"></feMergeNode><feMergeNode in="blur3"></feMergeNode><feMergeNode in="conv"></feMergeNode><feMergeNode in="SourceGraphic"></feMergeNode></feMerge></filter></defs><g filter="url(#editing-neon)"><g transform="translate(168.93437469005585, 86.67000007629395)"><path d="M11.04-0.60L11.04-0.60Q10.29-0.48 9.39-0.33L9.39-0.33L9.39-0.33Q8.49-0.18 7.77-0.06L7.77-0.06L7.77-0.06Q7.89-1.05 8.01-2.01L8.01-2.01L8.01-2.01Q8.10-2.85 8.17-3.69L8.17-3.69L8.17-3.69Q8.25-4.53 8.31-5.13L8.31-5.13L5.70-5.13L4.50-0.81L4.50-0.81Q3.84-0.72 2.94-0.61L2.94-0.61L2.94-0.61Q2.04-0.51 1.26-0.42L1.26-0.42L1.26-0.42Q0.30-0.30-0.63-0.18L-0.63-0.18L-0.63-0.18Q0.57-4.17 1.74-8.04L1.74-8.04L1.74-8.04Q2.22-9.66 2.75-11.43L2.75-11.43L2.75-11.43Q3.27-13.20 3.79-14.96L3.79-14.96L3.79-14.96Q4.32-16.71 4.80-18.33L4.80-18.33L4.80-18.33Q5.28-19.95 5.64-21.30L5.64-21.30L5.64-21.30Q7.68-21.45 9.79-21.66L9.79-21.66L9.79-21.66Q11.91-21.87 13.92-22.23L13.92-22.23L13.92-22.23Q13.83-21.27 13.72-19.84L13.72-19.84L13.72-19.84Q13.62-18.42 13.53-16.74L13.53-16.74L13.53-16.74Q13.44-15.06 13.35-13.23L13.35-13.23L13.35-13.23Q13.26-11.40 13.17-9.63L13.17-9.63L13.17-9.63Q13.02-5.49 12.84-0.84L12.84-0.84L12.84-0.84Q11.94-0.69 11.04-0.60L11.04-0.60ZM8.28-15.66L6.42-8.13L6.42-8.13Q6.54-8.13 6.85-8.14L6.85-8.14L6.85-8.14Q7.17-8.16 7.51-8.17L7.51-8.17L7.51-8.17Q7.86-8.19 8.16-8.21L8.16-8.21L8.16-8.21Q8.46-8.22 8.58-8.25L8.58-8.25L8.58-8.25Q8.58-8.43 8.63-8.87L8.63-8.87L8.63-8.87Q8.67-9.30 8.71-9.86L8.71-9.86L8.71-9.86Q8.76-10.41 8.82-11.07L8.82-11.07L8.82-11.07Q8.88-11.73 8.94-12.36L8.94-12.36L8.94-12.36Q9.06-13.89 9.24-15.66L9.24-15.66L9.42-18.27L8.97-18.24L8.28-15.66ZM19.23-2.40L19.23-2.40Q19.23-1.83 18.98-1.26L18.98-1.26L18.98-1.26Q18.72-0.69 18.24-0.26L18.24-0.26L18.24-0.26Q17.76 0.18 17.04 0.43L17.04 0.43L17.04 0.43Q16.32 0.69 15.39 0.69L15.39 0.69L15.39 0.69Q14.76 0.69 14.25 0.45L14.25 0.45L14.25 0.45Q13.74 0.21 13.43-0.20L13.43-0.20L13.43-0.20Q13.11-0.60 12.93-1.11L12.93-1.11L12.93-1.11Q12.75-1.62 12.75-2.13L12.75-2.13L12.75-2.13Q12.75-2.70 12.93-3.23L12.93-3.23L12.93-3.23Q13.11-3.75 13.48-4.16L13.48-4.16L13.48-4.16Q13.86-4.56 14.42-4.83L14.42-4.83L14.42-4.83Q14.97-5.10 15.75-5.10L15.75-5.10L15.75-5.10Q17.49-5.10 18.36-4.27L18.36-4.27L18.36-4.27Q19.23-3.45 19.23-2.40L19.23-2.40ZM24.33-0.69L19.47 0.03L19.47 0.03Q20.37-4.17 21.15-8.13L21.15-8.13L21.15-8.13Q21.45-9.84 21.78-11.67L21.78-11.67L21.78-11.67Q22.11-13.50 22.39-15.30L22.39-15.30L22.39-15.30Q22.68-17.10 22.90-18.79L22.90-18.79L22.90-18.79Q23.13-20.49 23.25-21.87L23.25-21.87L23.25-21.87Q23.94-21.81 24.81-21.77L24.81-21.77L24.81-21.77Q25.68-21.72 26.43-21.66L26.43-21.66L26.43-21.66Q27.33-21.60 28.23-21.60L28.23-21.60L28.23-21.60Q28.20-21.48 28.14-21.15L28.14-21.15L28.14-21.15Q28.08-20.82 27.99-20.36L27.99-20.36L27.99-20.36Q27.90-19.89 27.79-19.32L27.79-19.32L27.79-19.32Q27.69-18.75 27.57-18.18L27.57-18.18L27.57-18.18Q27.33-16.86 27.03-15.21L27.03-15.21L27.21-15.24L27.21-15.24Q27.51-15.72 28.06-16.57L28.06-16.57L28.06-16.57Q28.62-17.43 29.22-18.39L29.22-18.39L29.22-18.39Q29.82-19.35 30.39-20.23L30.39-20.23L30.39-20.23Q30.96-21.12 31.35-21.75L31.35-21.75L31.35-21.75Q32.85-21.87 34.35-22.02L34.35-22.02L34.35-22.02Q35.85-22.17 37.35-22.41L37.35-22.41L37.35-22.41Q35.94-20.52 34.62-18.69L34.62-18.69L34.62-18.69Q34.05-17.91 33.46-17.07L33.46-17.07L33.46-17.07Q32.88-16.23 32.31-15.42L32.31-15.42L32.31-15.42Q31.74-14.61 31.24-13.86L31.24-13.86L31.24-13.86Q30.75-13.11 30.36-12.48L30.36-12.48L30.36-12.48Q31.02-9.45 31.92-6.63L31.92-6.63L31.92-6.63Q32.82-3.81 33.75-0.87L33.75-0.87L33.75-0.87Q33.06-0.90 32.34-0.91L32.34-0.91L32.34-0.91Q31.62-0.93 30.93-0.93L30.93-0.93L30.93-0.93Q30.06-0.93 29.25-0.91L29.25-0.91L29.25-0.91Q28.44-0.90 27.57-0.87L27.57-0.87L27.57-0.87Q27.30-2.82 26.98-4.96L26.98-4.96L26.98-4.96Q26.67-7.11 26.40-9.06L26.40-9.06L25.86-8.43L25.86-8.43Q25.65-7.53 25.39-6.21L25.39-6.21L25.39-6.21Q25.14-4.89 24.90-3.66L24.90-3.66L24.90-3.66Q24.63-2.22 24.33-0.69L24.33-0.69ZM39.36-2.40L39.36-2.40Q39.36-1.83 39.10-1.26L39.10-1.26L39.10-1.26Q38.85-0.69 38.37-0.26L38.37-0.26L38.37-0.26Q37.89 0.18 37.17 0.43L37.17 0.43L37.17 0.43Q36.45 0.69 35.52 0.69L35.52 0.69L35.52 0.69Q34.89 0.69 34.38 0.45L34.38 0.45L34.38 0.45Q33.87 0.21 33.55-0.20L33.55-0.20L33.55-0.20Q33.24-0.60 33.06-1.11L33.06-1.11L33.06-1.11Q32.88-1.62 32.88-2.13L32.88-2.13L32.88-2.13Q32.88-2.70 33.06-3.23L33.06-3.23L33.06-3.23Q33.24-3.75 33.61-4.16L33.61-4.16L33.61-4.16Q33.99-4.56 34.54-4.83L34.54-4.83L34.54-4.83Q35.10-5.10 35.88-5.10L35.88-5.10L35.88-5.10Q37.62-5.10 38.49-4.27L38.49-4.27L38.49-4.27Q39.36-3.45 39.36-2.40L39.36-2.40ZM50.43-0.60L50.43-0.60Q49.68-0.48 48.78-0.33L48.78-0.33L48.78-0.33Q47.88-0.18 47.16-0.06L47.16-0.06L47.16-0.06Q47.28-1.05 47.40-2.01L47.40-2.01L47.40-2.01Q47.49-2.85 47.56-3.69L47.56-3.69L47.56-3.69Q47.64-4.53 47.70-5.13L47.70-5.13L45.09-5.13L43.89-0.81L43.89-0.81Q43.23-0.72 42.33-0.61L42.33-0.61L42.33-0.61Q41.43-0.51 40.65-0.42L40.65-0.42L40.65-0.42Q39.69-0.30 38.76-0.18L38.76-0.18L38.76-0.18Q39.96-4.17 41.13-8.04L41.13-8.04L41.13-8.04Q41.61-9.66 42.13-11.43L42.13-11.43L42.13-11.43Q42.66-13.20 43.19-14.96L43.19-14.96L43.19-14.96Q43.71-16.71 44.19-18.33L44.19-18.33L44.19-18.33Q44.67-19.95 45.03-21.30L45.03-21.30L45.03-21.30Q47.07-21.45 49.19-21.66L49.19-21.66L49.19-21.66Q51.30-21.87 53.31-22.23L53.31-22.23L53.31-22.23Q53.22-21.27 53.12-19.84L53.12-19.84L53.12-19.84Q53.01-18.42 52.92-16.74L52.92-16.74L52.92-16.74Q52.83-15.06 52.74-13.23L52.74-13.23L52.74-13.23Q52.65-11.40 52.56-9.63L52.56-9.63L52.56-9.63Q52.41-5.49 52.23-0.84L52.23-0.84L52.23-0.84Q51.33-0.69 50.43-0.60L50.43-0.60ZM47.67-15.66L45.81-8.13L45.81-8.13Q45.93-8.13 46.24-8.14L46.24-8.14L46.24-8.14Q46.56-8.16 46.91-8.17L46.91-8.17L46.91-8.17Q47.25-8.19 47.55-8.21L47.55-8.21L47.55-8.21Q47.85-8.22 47.97-8.25L47.97-8.25L47.97-8.25Q47.97-8.43 48.02-8.87L48.02-8.87L48.02-8.87Q48.06-9.30 48.11-9.86L48.11-9.86L48.11-9.86Q48.15-10.41 48.21-11.07L48.21-11.07L48.21-11.07Q48.27-11.73 48.33-12.36L48.33-12.36L48.33-12.36Q48.45-13.89 48.63-15.66L48.63-15.66L48.81-18.27L48.36-18.24L47.67-15.66ZM58.62-2.40L58.62-2.40Q58.62-1.83 58.37-1.26L58.37-1.26L58.37-1.26Q58.11-0.69 57.63-0.26L57.63-0.26L57.63-0.26Q57.15 0.18 56.43 0.43L56.43 0.43L56.43 0.43Q55.71 0.69 54.78 0.69L54.78 0.69L54.78 0.69Q54.15 0.69 53.64 0.45L53.64 0.45L53.64 0.45Q53.13 0.21 52.82-0.20L52.82-0.20L52.82-0.20Q52.50-0.60 52.32-1.11L52.32-1.11L52.32-1.11Q52.14-1.62 52.14-2.13L52.14-2.13L52.14-2.13Q52.14-2.70 52.32-3.23L52.32-3.23L52.32-3.23Q52.50-3.75 52.88-4.16L52.88-4.16L52.88-4.16Q53.25-4.56 53.80-4.83L53.80-4.83L53.80-4.83Q54.36-5.10 55.14-5.10L55.14-5.10L55.14-5.10Q56.88-5.10 57.75-4.27L57.75-4.27L57.75-4.27Q58.62-3.45 58.62-2.40L58.62-2.40ZM68.55-0.51L63.60-0.18L63.60-0.18Q64.92-4.17 66.12-8.01L66.12-8.01L66.12-8.01Q66.63-9.63 67.17-11.40L67.17-11.40L67.17-11.40Q67.71-13.17 68.25-14.91L68.25-14.91L68.25-14.91Q68.79-16.65 69.25-18.27L69.25-18.27L69.25-18.27Q69.72-19.89 70.08-21.27L70.08-21.27L70.08-21.27Q71.73-21.27 73.20-21.45L73.20-21.45L73.20-21.45Q74.67-21.63 76.38-21.78L76.38-21.78L76.38-21.78Q76.29-21.12 76.19-20.29L76.19-20.29L76.19-20.29Q76.08-19.47 75.94-18.57L75.94-18.57L75.94-18.57Q75.81-17.67 75.66-16.71L75.66-16.71L75.66-16.71Q75.51-15.75 75.30-14.25L75.30-14.25L75.30-14.25Q75.09-12.75 74.73-10.50L74.73-10.50L75.12-10.50L75.12-10.50Q75.99-12.78 76.56-14.29L76.56-14.29L76.56-14.29Q77.13-15.81 77.49-16.77L77.49-16.77L77.49-16.77Q77.85-17.73 78.22-18.64L78.22-18.64L78.22-18.64Q78.60-19.56 78.94-20.38L78.94-20.38L78.94-20.38Q79.29-21.21 79.59-21.84L79.59-21.84L79.59-21.84Q80.34-21.90 81-21.99L81-21.99L81-21.99Q81.66-22.08 82.32-22.18L82.32-22.18L82.32-22.18Q82.98-22.29 83.66-22.39L83.66-22.39L83.66-22.39Q84.33-22.50 85.14-22.65L85.14-22.65L85.14-22.65Q84.84-20.91 84.57-19.08L84.57-19.08L84.57-19.08Q84.30-17.25 84.09-15.43L84.09-15.43L84.09-15.43Q83.88-13.62 83.69-11.85L83.69-11.85L83.69-11.85Q83.49-10.08 83.34-8.49L83.34-8.49L83.34-8.49Q82.98-4.77 82.71-1.23L82.71-1.23L77.49-0.30L77.49-0.30Q77.49-0.45 77.53-1.11L77.53-1.11L77.53-1.11Q77.58-1.77 77.66-2.73L77.66-2.73L77.66-2.73Q77.73-3.69 77.86-4.86L77.86-4.86L77.86-4.86Q78-6.03 78.14-7.20L78.14-7.20L78.14-7.20Q78.27-8.37 78.42-9.46L78.42-9.46L78.42-9.46Q78.57-10.56 78.72-11.34L78.72-11.34L78.45-11.34L78.45-11.34Q78.03-10.08 77.52-8.69L77.52-8.69L77.52-8.69Q77.01-7.29 76.48-5.85L76.48-5.85L76.48-5.85Q75.96-4.41 75.45-3.03L75.45-3.03L75.45-3.03Q74.94-1.65 74.55-0.39L74.55-0.39L74.55-0.39Q73.50-0.36 72.75-0.32L72.75-0.32L72.75-0.32Q72-0.27 71.01-0.21L71.01-0.21L71.97-11.34L71.52-11.34L71.52-11.34Q71.46-10.95 71.22-10.04L71.22-10.04L71.22-10.04Q70.98-9.12 70.67-7.93L70.67-7.93L70.67-7.93Q70.35-6.75 69.99-5.47L69.99-5.47L69.99-5.47Q69.63-4.20 69.31-3.10L69.31-3.10L69.31-3.10Q69-2.01 68.79-1.30L68.79-1.30L68.79-1.30Q68.58-0.60 68.55-0.51L68.55-0.51ZM99.87-16.23L99.87-16.23Q99.87-13.77 99.34-11.59L99.34-11.59L99.34-11.59Q98.82-9.42 97.95-7.60L97.95-7.60L97.95-7.60Q97.08-5.79 95.92-4.37L95.92-4.37L95.92-4.37Q94.77-2.94 93.51-1.93L93.51-1.93L93.51-1.93Q92.25-0.93 90.96-0.40L90.96-0.40L90.96-0.40Q89.67 0.12 88.50 0.12L88.50 0.12L88.50 0.12Q87.51 0.12 86.70-0.26L86.70-0.26L86.70-0.26Q85.89-0.63 85.29-1.36L85.29-1.36L85.29-1.36Q84.69-2.10 84.34-3.25L84.34-3.25L84.34-3.25Q84-4.41 84-6.03L84-6.03L84-6.03Q84-7.71 84.42-9.57L84.42-9.57L84.42-9.57Q84.84-11.43 85.56-13.26L85.56-13.26L85.56-13.26Q86.28-15.09 87.33-16.74L87.33-16.74L87.33-16.74Q88.38-18.39 89.64-19.66L89.64-19.66L89.64-19.66Q90.90-20.94 92.34-21.69L92.34-21.69L92.34-21.69Q93.78-22.44 95.34-22.44L95.34-22.44L95.34-22.44Q96.69-22.44 97.57-21.88L97.57-21.88L97.57-21.88Q98.46-21.33 98.95-20.45L98.95-20.45L98.95-20.45Q99.45-19.56 99.66-18.45L99.66-18.45L99.66-18.45Q99.87-17.34 99.87-16.23L99.87-16.23ZM88.47-6.81L88.47-6.81Q88.47-6.48 88.59-6.12L88.59-6.12L88.59-6.12Q88.71-5.76 88.92-5.49L88.92-5.49L88.92-5.49Q89.13-5.22 89.44-5.02L89.44-5.02L89.44-5.02Q89.76-4.83 90.12-4.83L90.12-4.83L90.12-4.83Q91.47-4.83 92.52-5.76L92.52-5.76L92.52-5.76Q93.57-6.69 94.26-8.04L94.26-8.04L94.26-8.04Q94.95-9.39 95.32-10.92L95.32-10.92L95.32-10.92Q95.70-12.45 95.70-13.71L95.70-13.71L95.70-13.71Q95.70-14.07 95.65-14.49L95.65-14.49L95.65-14.49Q95.61-14.91 95.47-15.27L95.47-15.27L95.47-15.27Q95.34-15.63 95.05-15.88L95.05-15.88L95.05-15.88Q94.77-16.14 94.29-16.14L94.29-16.14L94.29-16.14Q93.33-16.14 92.52-15.66L92.52-15.66L92.52-15.66Q91.71-15.18 91.06-14.38L91.06-14.38L91.06-14.38Q90.42-13.59 89.94-12.58L89.94-12.58L89.94-12.58Q89.46-11.58 89.11-10.54L89.11-10.54L89.11-10.54Q88.77-9.51 88.62-8.52L88.62-8.52L88.62-8.52Q88.47-7.53 88.47-6.81L88.47-6.81ZM102.84-1.23L97.98 0.03L97.98 0.03Q98.79-3.96 99.54-7.77L99.54-7.77L99.54-7.77Q99.81-9.39 100.14-11.14L100.14-11.14L100.14-11.14Q100.47-12.90 100.75-14.63L100.75-14.63L100.75-14.63Q101.04-16.35 101.29-17.95L101.29-17.95L101.29-17.95Q101.55-19.56 101.70-20.88L101.70-20.88L101.70-20.88Q103.41-21.42 105.39-21.68L105.39-21.68L105.39-21.68Q107.37-21.93 109.32-21.93L109.32-21.93L109.32-21.93Q110.49-21.93 111.25-21.66L111.25-21.66L111.25-21.66Q112.02-21.39 112.45-20.89L112.45-20.89L112.45-20.89Q112.89-20.40 113.07-19.74L113.07-19.74L113.07-19.74Q113.25-19.08 113.25-18.27L113.25-18.27L113.25-18.27Q113.25-17.07 112.83-15.91L112.83-15.91L112.83-15.91Q112.41-14.76 111.70-13.72L111.70-13.72L111.70-13.72Q111.00-12.69 110.08-11.83L110.08-11.83L110.08-11.83Q109.17-10.98 108.12-10.44L108.12-10.44L108.12-10.44Q108.66-9.24 109.27-7.81L109.27-7.81L109.27-7.81Q109.89-6.39 110.43-5.10L110.43-5.10L110.43-5.10Q111.03-3.60 111.66-2.10L111.66-2.10L107.01-0.48L107.01-0.48Q106.41-2.40 105.93-4.08L105.93-4.08L105.93-4.08Q105.72-4.77 105.51-5.50L105.51-5.50L105.51-5.50Q105.30-6.24 105.12-6.90L105.12-6.90L105.12-6.90Q104.94-7.56 104.82-8.08L104.82-8.08L104.82-8.08Q104.70-8.61 104.67-8.94L104.67-8.94L104.28-8.82L104.28-8.82Q104.10-7.86 103.84-6.57L103.84-6.57L103.84-6.57Q103.59-5.28 103.38-4.08L103.38-4.08L103.38-4.08Q103.11-2.67 102.84-1.23L102.84-1.23ZM105.99-17.76L105.03-12.99L105.03-12.99Q105.60-13.05 106.42-13.47L106.42-13.47L106.42-13.47Q107.25-13.89 108.00-14.47L108.00-14.47L108.00-14.47Q108.75-15.06 109.29-15.69L109.29-15.69L109.29-15.69Q109.83-16.32 109.83-16.80L109.83-16.80L109.83-16.80Q109.83-17.13 109.62-17.32L109.62-17.32L109.62-17.32Q109.41-17.52 109.03-17.63L109.03-17.63L109.03-17.63Q108.66-17.73 108.21-17.76L108.21-17.76L108.21-17.76Q107.76-17.79 107.28-17.79L107.28-17.79L107.28-17.79Q106.95-17.79 106.60-17.77L106.60-17.77L106.60-17.77Q106.26-17.76 105.99-17.76L105.99-17.76ZM127.98-16.23L127.98-16.23Q127.98-13.77 127.45-11.59L127.45-11.59L127.45-11.59Q126.93-9.42 126.06-7.60L126.06-7.60L126.06-7.60Q125.19-5.79 124.03-4.37L124.03-4.37L124.03-4.37Q122.88-2.94 121.62-1.93L121.62-1.93L121.62-1.93Q120.36-0.93 119.07-0.40L119.07-0.40L119.07-0.40Q117.78 0.12 116.61 0.12L116.61 0.12L116.61 0.12Q115.62 0.12 114.81-0.26L114.81-0.26L114.81-0.26Q114.00-0.63 113.40-1.36L113.40-1.36L113.40-1.36Q112.80-2.10 112.45-3.25L112.45-3.25L112.45-3.25Q112.11-4.41 112.11-6.03L112.11-6.03L112.11-6.03Q112.11-7.71 112.53-9.57L112.53-9.57L112.53-9.57Q112.95-11.43 113.67-13.26L113.67-13.26L113.67-13.26Q114.39-15.09 115.44-16.74L115.44-16.74L115.44-16.74Q116.49-18.39 117.75-19.66L117.75-19.66L117.75-19.66Q119.01-20.94 120.45-21.69L120.45-21.69L120.45-21.69Q121.89-22.44 123.45-22.44L123.45-22.44L123.45-22.44Q124.80-22.44 125.68-21.88L125.68-21.88L125.68-21.88Q126.57-21.33 127.06-20.45L127.06-20.45L127.06-20.45Q127.56-19.56 127.77-18.45L127.77-18.45L127.77-18.45Q127.98-17.34 127.98-16.23L127.98-16.23ZM116.58-6.81L116.58-6.81Q116.58-6.48 116.70-6.12L116.70-6.12L116.70-6.12Q116.82-5.76 117.03-5.49L117.03-5.49L117.03-5.49Q117.24-5.22 117.55-5.02L117.55-5.02L117.55-5.02Q117.87-4.83 118.23-4.83L118.23-4.83L118.23-4.83Q119.58-4.83 120.63-5.76L120.63-5.76L120.63-5.76Q121.68-6.69 122.37-8.04L122.37-8.04L122.37-8.04Q123.06-9.39 123.43-10.92L123.43-10.92L123.43-10.92Q123.81-12.45 123.81-13.71L123.81-13.71L123.81-13.71Q123.81-14.07 123.76-14.49L123.76-14.49L123.76-14.49Q123.72-14.91 123.58-15.27L123.58-15.27L123.58-15.27Q123.45-15.63 123.16-15.88L123.16-15.88L123.16-15.88Q122.88-16.14 122.40-16.14L122.40-16.14L122.40-16.14Q121.44-16.14 120.63-15.66L120.63-15.66L120.63-15.66Q119.82-15.18 119.17-14.38L119.17-14.38L119.17-14.38Q118.53-13.59 118.05-12.58L118.05-12.58L118.05-12.58Q117.57-11.58 117.22-10.54L117.22-10.54L117.22-10.54Q116.88-9.51 116.73-8.52L116.73-8.52L116.73-8.52Q116.58-7.53 116.58-6.81L116.58-6.81ZM134.25-0.96L134.25-0.96Q133.32-0.96 132.28-0.90L132.28-0.90L132.28-0.90Q131.25-0.84 130.20-0.72L130.20-0.72L130.20-0.72Q129.15-0.60 128.14-0.40L128.14-0.40L128.14-0.40Q127.14-0.21 126.33 0.06L126.33 0.06L126.33 0.06Q126.51-1.29 126.75-2.94L126.75-2.94L126.75-2.94Q126.99-4.59 127.30-6.36L127.30-6.36L127.30-6.36Q127.62-8.13 127.93-9.93L127.93-9.93L127.93-9.93Q128.25-11.73 128.58-13.38L128.58-13.38L128.58-13.38Q129.33-17.31 130.17-21.39L130.17-21.39L135.42-22.08L135.42-22.08Q134.61-18.60 133.86-15.30L133.86-15.30L133.86-15.30Q133.53-13.89 133.20-12.38L133.20-12.38L133.20-12.38Q132.87-10.86 132.57-9.42L132.57-9.42L132.57-9.42Q132.27-7.98 132.03-6.63L132.03-6.63L132.03-6.63Q131.79-5.28 131.64-4.23L131.64-4.23L131.64-4.23Q132.39-4.29 133.24-4.30L133.24-4.30L133.24-4.30Q134.10-4.32 134.76-4.32L134.76-4.32L134.76-4.32Q134.79-3.75 134.85-3.19L134.85-3.19L134.85-3.19Q134.91-2.64 134.98-2.19L134.98-2.19L134.98-2.19Q135.06-1.74 135.10-1.40L135.10-1.40L135.10-1.40Q135.15-1.05 135.18-0.93L135.18-0.93L135.18-0.93Q134.94-0.93 134.71-0.94L134.71-0.94L134.71-0.94Q134.49-0.96 134.25-0.96L134.25-0.96ZM146.07-0.60L146.07-0.60Q145.32-0.48 144.42-0.33L144.42-0.33L144.42-0.33Q143.52-0.18 142.80-0.06L142.80-0.06L142.80-0.06Q142.92-1.05 143.04-2.01L143.04-2.01L143.04-2.01Q143.13-2.85 143.20-3.69L143.20-3.69L143.20-3.69Q143.28-4.53 143.34-5.13L143.34-5.13L140.73-5.13L139.53-0.81L139.53-0.81Q138.87-0.72 137.97-0.61L137.97-0.61L137.97-0.61Q137.07-0.51 136.29-0.42L136.29-0.42L136.29-0.42Q135.33-0.30 134.40-0.18L134.40-0.18L134.40-0.18Q135.60-4.17 136.77-8.04L136.77-8.04L136.77-8.04Q137.25-9.66 137.77-11.43L137.77-11.43L137.77-11.43Q138.30-13.20 138.82-14.96L138.82-14.96L138.82-14.96Q139.35-16.71 139.83-18.33L139.83-18.33L139.83-18.33Q140.31-19.95 140.67-21.30L140.67-21.30L140.67-21.30Q142.71-21.45 144.82-21.66L144.82-21.66L144.82-21.66Q146.94-21.87 148.95-22.23L148.95-22.23L148.95-22.23Q148.86-21.27 148.75-19.84L148.75-19.84L148.75-19.84Q148.65-18.42 148.56-16.74L148.56-16.74L148.56-16.74Q148.47-15.06 148.38-13.23L148.38-13.23L148.38-13.23Q148.29-11.40 148.20-9.63L148.20-9.63L148.20-9.63Q148.05-5.49 147.87-0.84L147.87-0.84L147.87-0.84Q146.97-0.69 146.07-0.60L146.07-0.60ZM143.31-15.66L141.45-8.13L141.45-8.13Q141.57-8.13 141.88-8.14L141.88-8.14L141.88-8.14Q142.20-8.16 142.54-8.17L142.54-8.17L142.54-8.17Q142.89-8.19 143.19-8.21L143.19-8.21L143.19-8.21Q143.49-8.22 143.61-8.25L143.61-8.25L143.61-8.25Q143.61-8.43 143.65-8.87L143.65-8.87L143.65-8.87Q143.70-9.30 143.74-9.86L143.74-9.86L143.74-9.86Q143.79-10.41 143.85-11.07L143.85-11.07L143.85-11.07Q143.91-11.73 143.97-12.36L143.97-12.36L143.97-12.36Q144.09-13.89 144.27-15.66L144.27-15.66L144.45-18.27L144.00-18.24L143.31-15.66ZM152.55-0.87L148.17 0.15L148.17 0.15Q149.07-4.17 149.88-8.22L149.88-8.22L149.88-8.22Q150.18-9.96 150.52-11.82L150.52-11.82L150.52-11.82Q150.87-13.68 151.17-15.49L151.17-15.49L151.17-15.49Q151.47-17.31 151.71-18.97L151.71-18.97L151.71-18.97Q151.95-20.64 152.07-21.99L152.07-21.99L152.07-21.99Q152.46-21.96 152.73-21.96L152.73-21.96L152.73-21.96Q153.00-21.96 153.36-21.96L153.36-21.96L153.36-21.96Q153.78-21.96 154.38-21.97L154.38-21.97L154.38-21.97Q154.98-21.99 155.58-22.02L155.58-22.02L155.58-22.02Q156.18-22.05 156.87-22.08L156.87-22.08L156.87-22.08Q157.29-19.98 157.62-18.03L157.62-18.03L157.62-18.03Q157.95-16.32 158.29-14.52L158.29-14.52L158.29-14.52Q158.64-12.72 158.91-11.46L158.91-11.46L158.91-11.46Q159.03-12.06 159.18-12.85L159.18-12.85L159.18-12.85Q159.33-13.65 159.51-14.52L159.51-14.52L159.51-14.52Q159.69-15.39 159.85-16.27L159.85-16.27L159.85-16.27Q160.02-17.16 160.20-18.03L160.20-18.03L160.20-18.03Q160.62-19.98 161.07-22.05L161.07-22.05L164.73-22.50L164.73-22.50Q163.71-17.91 162.93-13.80L162.93-13.80L162.93-13.80Q162.57-12.03 162.22-10.21L162.22-10.21L162.22-10.21Q161.88-8.40 161.58-6.73L161.58-6.73L161.58-6.73Q161.28-5.07 161.07-3.65L161.07-3.65L161.07-3.65Q160.86-2.22 160.74-1.26L160.74-1.26L160.74-1.26Q160.65-1.26 160.03-1.13L160.03-1.13L160.03-1.13Q159.42-0.99 158.62-0.81L158.62-0.81L158.62-0.81Q157.83-0.63 157.03-0.45L157.03-0.45L157.03-0.45Q156.24-0.27 155.85-0.12L155.85-0.12L155.85-0.12Q155.67-2.52 155.46-4.68L155.46-4.68L155.46-4.68Q155.37-5.61 155.26-6.58L155.26-6.58L155.26-6.58Q155.16-7.56 155.04-8.46L155.04-8.46L155.04-8.46Q154.92-9.36 154.80-10.14L154.80-10.14L154.80-10.14Q154.68-10.92 154.56-11.49L154.56-11.49L154.56-11.49Q154.47-10.92 154.32-10.17L154.32-10.17L154.32-10.17Q154.17-9.42 154.02-8.58L154.02-8.58L154.02-8.58Q153.87-7.74 153.72-6.83L153.72-6.83L153.72-6.83Q153.57-5.91 153.39-5.07L153.39-5.07L153.39-5.07Q153.00-3.06 152.55-0.87L152.55-0.87Z" fill="none" stroke="#ffffff" stroke-width="0.8"></path></g></g><style>text {
  font-size: 64px;
  font-family: Arial Black;
  dominant-baseline: central;
  text-anchor: middle;
}</style></svg>